PathFileType	4	(X/Y/Z)	C:/Users/opensim2020/Desktop/walking_exp_matlab/subject06_walking21_straight_02.trc	
DataRate	CameraRate	NumFrames	NumMarkers	Units	OrigDataRate	OrigDataStartFrame	OrigNumFrames	
100.00	100.00	4	44	mm	100.00	1325	172	
Frame#	Time	LFHD			RFHD			LBHD			RBHD			C7			T10			CLAV			STRN			RBAK			LSHO			LUPA			LELB			LFRM			LWRA			LWRB			LFIN			RSHO			RUPA			RELB			RFRM			RWRA			RWRB			RFIN			LASI			RASI			LPSI			RPSI			LTHI			LKNE			LTIB			LANK			LHEE			LTOE			RTHI			RKNE			RTIB			RANK			RHEE			RTOE			*39			*40			*41			*42			*43			
		X1	Y1	Z1	X2	Y2	Z2	X3	Y3	Z3	X4	Y4	Z4	X5	Y5	Z5	X6	Y6	Z6	X7	Y7	Z7	X8	Y8	Z8	X9	Y9	Z9	X10	Y10	Z10	X11	Y11	Z11	X12	Y12	Z12	X13	Y13	Z13	X14	Y14	Z14	X15	Y15	Z15	X16	Y16	Z16	X17	Y17	Z17	X18	Y18	Z18	X19	Y19	Z19	X20	Y20	Z20	X21	Y21	Z21	X22	Y22	Z22	X23	Y23	Z23	X24	Y24	Z24	X25	Y25	Z25	X26	Y26	Z26	X27	Y27	Z27	X28	Y28	Z28	X29	Y29	Z29	X30	Y30	Z30	X31	Y31	Z31	X32	Y32	Z32	X33	Y33	Z33	X34	Y34	Z34	X35	Y35	Z35	X36	Y36	Z36	X37	Y37	Z37	X38	Y38	Z38	X39	Y39	Z39	X40	Y40	Z40	X41	Y41	Z41	X42	Y42	Z42	X43	Y43	Z43	X44	Y44	Z44	

65	0.640	1530.96082	647.84369	1671.57776	1400.31079	656.95746	1658.38049	1542.25903	779.84644	1614.49487	1414.08960	787.59821	1606.77783	1484.92419	781.28101	1455.62561	1467.42676	810.45844	1127.02124	1477.79834	668.73303	1381.30615	1482.03259	626.63123	1207.40295	1407.51672	854.68604	1285.30872	1642.08276	719.60474	1410.25488	1714.52222	708.85968	1208.47888	1727.72791	705.77094	1095.69202	1752.27429	659.31171	953.80286	1714.21057	577.30481	851.06171	1748.35071	638.19177	836.32813	1752.63965	584.09192	763.59613	1319.26160	724.93475	1412.53918	1235.61572	781.25403	1216.97498	1224.69910	783.24738	1094.82959	1204.76282	781.74188	974.78223	1227.40491	732.97595	828.98083	1193.49255	790.82813	837.27771	1188.23328	764.26367	756.81903	1578.24426	633.37500	973.34387	1359.78467	632.42383	975.69244	1544.77002	790.72833	996.41199	1378.02014	780.83075	991.73767	1631.72021	702.19891	657.46069	1608.79285	708.92523	493.03064	1599.86279	767.61865	241.02701	1551.17993	786.95618	70.22644	1508.76831	830.68121	57.21128	1539.27063	643.77887	40.68653	1301.81665	593.06909	648.01300	1325.04053	539.80164	534.06555	1338.81580	663.35248	308.55109	1388.27246	767.89020	157.92171	1433.82703	815.61206	154.34549	1396.36096	651.26782	61.64140	1479.15234	753.37909	1706.80603												 
66	0.650	1530.95801	634.60260	1670.45325	1400.31787	643.82056	1657.14465	1542.42798	766.79132	1613.73523	1414.21216	774.57129	1605.85767	1485.26184	768.67053	1454.74915	1467.77576	798.28009	1126.04138	1478.32910	656.29242	1380.27295	1482.89856	614.49658	1206.31287	1408.23889	842.24530	1284.32434	1642.55286	707.36847	1409.51758	1715.38501	694.24017	1207.98511	1729.06226	688.61053	1095.33435	1753.75818	637.51752	955.04694	1715.89819	551.25519	855.79547	1749.33704	611.94196	838.52783	1753.98340	554.97760	768.02954	1319.60193	712.35693	1411.27832	1236.15356	770.37372	1216.14209	1225.30640	773.48053	1094.06726	1205.17285	774.23010	974.07257	1227.35815	728.44250	827.25360	1193.70911	786.17523	836.67163	1188.36963	761.38824	755.71405	1579.68640	622.43579	972.06915	1361.23730	619.56476	974.96643	1544.84607	779.19403	995.33563	1378.11243	768.09601	990.87738	1632.04236	694.11719	656.48315	1609.00745	703.03381	492.07391	1599.74561	764.27106	240.58470	1550.67627	786.31464	70.37450	1508.25854	830.19141	57.69632	1539.28455	643.20447	40.55657	1302.21436	576.83624	649.19800	1326.45325	523.14954	535.70319	1339.26160	637.54413	304.44412	1388.42590	733.14679	147.81004	1434.28015	779.93219	141.16356	1394.00000	611.32874	58.20175	1479.09326	740.12073	1705.96436												 
67	0.660	1530.95935	621.32776	1669.19958	1400.33789	630.62622	1655.67578	1542.16675	753.33484	1612.61096	1414.23999	761.51062	1604.71228	1485.50293	755.99524	1453.66077	1468.15149	786.02789	1124.86011	1478.78149	643.80615	1378.97424	1483.79016	602.28632	1204.99316	1408.88403	829.76306	1283.17175	1642.94983	694.99878	1408.54187	1716.15930	679.70605	1207.29053	1730.26721	671.57507	1094.77124	1755.02979	615.80743	956.35583	1717.39941	525.51917	860.73438	1749.36169	585.08533	840.24011	1754.99524	526.12756	772.74713	1319.90967	699.66815	1409.81482	1236.69727	759.35101	1215.10449	1225.73621	763.67444	1093.13574	1205.44153	766.41553	973.17480	1227.21704	723.41364	825.44354	1193.73914	781.08374	835.98022	1188.40710	757.76251	754.43805	1581.13074	611.04852	970.67719	1362.58484	606.61084	974.04169	1544.95020	767.54449	994.06122	1378.28076	755.26862	989.77374	1632.22473	685.70825	655.27979	1608.98547	696.77344	490.97128	1599.70190	760.74176	240.04808	1550.07324	785.49402	70.45835	1507.64844	829.89996	58.33686	1539.23792	642.80157	40.31079	1302.61816	561.21136	650.00916	1327.44580	506.70956	536.80493	1339.63086	611.75861	299.95740	1387.96753	698.15356	137.66882	1434.40149	743.95679	128.10443	1391.96252	571.22870	55.07177	1479.06360	726.79645	1704.81726												 
68	0.670	1530.82361	608.00165	1667.70752	1400.22498	617.44733	1654.05591	1542.50525	740.48541	1611.55933	1414.33984	748.41132	1603.37659	1485.74194	743.25592	1452.39917	1468.46899	773.63184	1123.53174	1479.19946	631.21429	1377.48132	1484.59863	589.92542	1203.48840	1409.41370	817.22070	1281.80103	1643.28040	682.51367	1407.36804	1716.86731	665.27637	1206.40979	1731.39929	654.75970	1094.08325	1756.02100	593.70837	957.64948	1718.73938	500.16876	865.98090	1749.93030	559.07813	842.73187	1755.82361	497.41583	777.90668	1320.21387	686.92633	1408.11121	1237.27100	748.29858	1213.88867	1225.94543	754.07562	1092.05322	1205.71338	758.36707	972.14740	1226.87769	717.73126	823.67682	1193.74963	775.37372	835.28882	1188.37354	753.66663	753.31586	1582.48035	599.60345	969.02283	1363.80115	593.61835	972.92889	1545.11267	755.73932	992.56024	1378.49341	742.44354	988.54224	1632.37708	677.07709	653.96869	1608.93335	690.31091	489.77069	1599.46594	757.37250	239.63689	1549.49463	784.83020	70.57368	1507.05383	829.46350	58.82745	1539.09595	642.41443	40.00450	1302.78894	546.09021	650.27057	1328.23364	491.38553	537.47717	1339.79260	586.10437	295.10889	1388.14917	661.82532	127.59927	1434.26660	707.43677	115.84777	1389.93994	530.74567	52.26178	1478.95923	713.46564	1703.42578												 
